<svg xmlns="http://www.w3.org/2000/svg" viewBox="0 0 600 600" role="img">
<rect width="600" height="600" fill="#F9E8E2"/>
<ellipse cx="300" cy="330" rx="240" ry="222" fill="#FDF3EF" />
<ellipse cx="300" cy="400" rx="96" ry="66" fill="#FFFDF9" stroke="#4A423B" stroke-width="9" /><circle cx="300" cy="270" r="80" fill="#FFFDF9" stroke="#4A423B" stroke-width="9"/><path d="M236,232 l-4,-34 l30,14 Z" fill="#E8A87C" stroke="#4A423B" stroke-width="8" stroke-linecap="round" stroke-linejoin="round" /><path d="M340,224 l14,-30 l22,26 Z" fill="#4A423B" stroke="#4A423B" stroke-width="8" stroke-linecap="round" stroke-linejoin="round" /><path d="M232,246 q20,-28 52,-22 q-6,30 -34,36 q-20,2 -18,-14 Z" fill="#E8A87C" stroke="#4A423B" stroke-width="0" stroke-linecap="round" stroke-linejoin="round" /><path d="M330,238 q26,-10 40,10 q-8,26 -34,24 q-16,-14 -6,-34 Z" fill="#5C534B" stroke="#4A423B" stroke-width="0" stroke-linecap="round" stroke-linejoin="round" /><circle cx="280" cy="276" r="5.5" fill="#4A423B"/><circle cx="322" cy="276" r="5.5" fill="#4A423B"/><path d="M294,292 q6,6 12,0" fill="none" stroke="#4A423B" stroke-width="5" stroke-linecap="round" stroke-linejoin="round" /><circle cx="252" cy="290" r="8" fill="#F0B9A4"/><circle cx="348" cy="290" r="8" fill="#F0B9A4"/><circle cx="242" cy="206" r="12" fill="#EFC5B9" stroke="#4A423B" stroke-width="5"/><circle cx="270" cy="212" r="12" fill="#F3D9A4" stroke="#4A423B" stroke-width="5"/><circle cx="300" cy="206" r="12" fill="#EFC5B9" stroke="#4A423B" stroke-width="5"/><circle cx="330" cy="212" r="12" fill="#A9BCA0" stroke="#4A423B" stroke-width="5"/><circle cx="358" cy="206" r="12" fill="#EFC5B9" stroke="#4A423B" stroke-width="5"/><ellipse cx="300" cy="428" rx="40" ry="24" fill="#F9E8E2" /><path d="M388,414 q30,-2 34,-30" fill="none" stroke="#E8A87C" stroke-width="12" stroke-linecap="round" stroke-linejoin="round" />
<path transform="translate(130,150) scale(1.0)" fill="#E8A87C" opacity="0.7" d="M0,-16 Q2.5,-3.5 16,0 Q2.5,3.5 0,16 Q-2.5,3.5 -16,0 Q-2.5,-3.5 0,-16 Z"/>
<path transform="translate(470,460) scale(0.8)" fill="#FFFFFF" opacity="0.9" d="M0,-16 Q2.5,-3.5 16,0 Q2.5,3.5 0,16 Q-2.5,3.5 -16,0 Q-2.5,-3.5 0,-16 Z"/>
</svg>