<svg xmlns="http://www.w3.org/2000/svg" viewBox="0 0 600 600" role="img">
<rect width="600" height="600" fill="#E4E2F0"/>
<ellipse cx="300.0" cy="330.0" rx="240.0" ry="222.0" fill="#EFEDF7" opacity="1.0"/>
<path d="M214,152 Q300,206 386,152 L466,262 L398,306 L398,478 Q300,500 202,478 L202,306 L134,262 Z" fill="#8E8BB8" stroke="#4A423B" stroke-width="9" stroke-linecap="round" stroke-linejoin="round" /><path d="M214,152 Q300,238 386,152" fill="none" stroke="#4A423B" stroke-width="8" stroke-linecap="round" stroke-linejoin="round" /><path d="M398,306 L398,296 M202,306 L202,296" fill="none" stroke="#4A423B" stroke-width="6" stroke-linecap="round" stroke-linejoin="round" /><path d="M330,306 A66,66 0 1 0 330,426 A52,52 0 1 1 330,306 Z" fill="#F3D9A4" stroke="#FFFDF9" stroke-width="7" stroke-linecap="round" stroke-linejoin="round" /><path d="M340,352 l44,-8 M340,368 l44,0 M340,384 l44,8" fill="none" stroke="#FFFDF9" stroke-width="5" stroke-linecap="round" stroke-linejoin="round" /><path transform="translate(250,300) scale(0.55)" fill="#F3D9A4" opacity="0.9" d="M0,-16 Q2.5,-3.5 16,0 Q2.5,3.5 0,16 Q-2.5,3.5 -16,0 Q-2.5,-3.5 0,-16 Z"/><path transform="translate(356,448) scale(0.45)" fill="#F3D9A4" opacity="0.9" d="M0,-16 Q2.5,-3.5 16,0 Q2.5,3.5 0,16 Q-2.5,3.5 -16,0 Q-2.5,-3.5 0,-16 Z"/>
<path transform="translate(140,160) scale(0.9)" fill="#8E8BB8" opacity="0.8" d="M0,-16 Q2.5,-3.5 16,0 Q2.5,3.5 0,16 Q-2.5,3.5 -16,0 Q-2.5,-3.5 0,-16 Z"/>
<path transform="translate(470,140) scale(0.7)" fill="#FFFFFF" opacity="0.9" d="M0,-16 Q2.5,-3.5 16,0 Q2.5,3.5 0,16 Q-2.5,3.5 -16,0 Q-2.5,-3.5 0,-16 Z"/>
<path transform="translate(470,480) scale(0.8)" fill="#8E8BB8" opacity="0.6" d="M0,-16 Q2.5,-3.5 16,0 Q2.5,3.5 0,16 Q-2.5,3.5 -16,0 Q-2.5,-3.5 0,-16 Z"/>
</svg>